<?xml version="1.0" encoding="UTF-8"?>
<svg version="1.1" xmlns="http://www.w3.org/2000/svg" width="96" height="135">
<path d="M0 0 C2.70567626 1.82339052 4.53728718 3.07457436 6 6 C6.60879608 10.21533488 6.90636836 14.25200388 4.90625 18.109375 C1.49065833 22.36069655 -1.99956608 23.87018555 -7 26 C-14.25863588 34.6700373 -14.41066147 43.17070498 -14 54 C-13.40574219 53.22140625 -12.81148437 52.4428125 -12.19921875 51.640625 C-8.39232219 47.0696444 -4.21260549 44.96668318 1.5625 44.0625 C5.83921313 43.77206108 8.42932195 44.48429501 12 47 C15.40441338 50.46899575 17.84751038 53.38361007 18.3125 58.3125 C17.93761913 62.73609427 17.23567726 64.00699853 14 67 C8.69362251 70.93296214 4.10968664 71.48587428 -2.3671875 70.62890625 C-6.15208694 69.72479822 -8.80555133 68.20062019 -12 66 C-14.86715202 76.92361226 -14.45020826 86.91984893 -9 97 C-4.97795752 101.84707683 -0.95634768 104.87701158 5.3125 105.8125 C12.86738954 106.41488322 17.86690318 104.38078345 24 100 C24.66 100 25.32 100 26 100 C26.42539063 99.13761719 26.42539063 99.13761719 26.859375 98.2578125 C27.58644975 96.81860288 28.34415831 95.39418708 29.140625 93.9921875 C31.92874182 88.67120399 32.42330481 84.94012328 30.90625 79.09765625 C29.61320251 76.10469718 27.95788553 75.22644034 25 74 C20.18174382 70.33183009 19.93592633 63.61555801 19 58 C18.88956729 55.80607019 18.93511559 53.68170754 19.02734375 51.48828125 C18.99125612 48.20430715 18.48493152 45.05986901 18 41.8125 C15.91960389 26.85776854 15.91960389 26.85776854 17 20 C19.29236607 17.04618029 21.4951027 15.48219046 25 14.25 C25.66 14.00765625 26.32 13.7653125 27 13.515625 C29 13 29 13 33 13 C33.495 14.98 33.495 14.98 34 17 C30.71303767 17.79953138 29.28976808 18.09658936 26 17 C23.83572704 17.45599341 23.83572704 17.45599341 22 19 C18.21538603 26.56922794 19.956485 35.91275879 21 44 C21.7425 44.268125 22.485 44.53625 23.25 44.8125 C26 46 26 46 27.75 47.6875 C31.43649277 49.83795412 34.97675517 49.03125331 39 48 C41.46587456 46.82622478 43.67197765 45.44337386 46 44 C46.99 44 47.98 44 49 44 C49.11622939 40.25026094 49.1872595 36.50098536 49.25 32.75 C49.28351563 31.68652344 49.31703125 30.62304688 49.3515625 29.52734375 C49.36445312 28.50253906 49.37734375 27.47773437 49.390625 26.421875 C49.41157227 25.47924805 49.43251953 24.53662109 49.45410156 23.56542969 C48.8651813 20.23834682 47.61902095 19.06244888 45 17 C42.62537209 16.73021061 42.62537209 16.73021061 40.25 17.25 C39.45078125 17.37890625 38.6515625 17.5078125 37.828125 17.640625 C37.22484375 17.75921875 36.6215625 17.8778125 36 18 C36 16.35 36 14.7 36 13 C40.86088633 13.60761079 45.64340976 14.7039592 50 17 C52.37886644 20.56829966 52.30512659 23.068345 52.25 27.1875 C52.24395752 27.91783447 52.23791504 28.64816895 52.23168945 29.40063477 C52.11768083 36.09397717 51.69392025 42.76360451 51.1875 49.4375 C51.08260254 50.92769653 51.08260254 50.92769653 50.97558594 52.44799805 C49.6132249 68.6945605 49.6132249 68.6945605 44.4375 74.125 C42 76 42 76 40 76 C40.061875 76.9075 40.12375 77.815 40.1875 78.75 C39.97018949 82.51671548 39.23521396 83.10250043 37 86 C36.5302956 87.40631734 36.09675459 88.82491706 35.6875 90.25 C32.8575273 99.08822245 27.14511525 104.72011217 19 109 C12.34089976 111.30399249 2.92701848 111.35207815 -3.5 108.4375 C-11.31732399 103.62042829 -15.8585675 95.79648781 -18 87 C-18.76798996 78.96093263 -18.61117837 70.67944626 -17.3515625 62.703125 C-16.98456116 58.83737759 -17.46429292 57.43864847 -19 54 C-19.63961182 46.38109449 -19.05286425 39.01107263 -17.51953125 31.54296875 C-17.00676068 29.03309175 -16.5893472 26.53897121 -16.25 24 C-16.15203125 23.29875 -16.0540625 22.5975 -15.953125 21.875 C-15.84162046 19.65935945 -15.84162046 19.65935945 -18 17 C-18.55675982 12.22777297 -18.55192516 9.24162138 -15.875 5.1875 C-11.38617204 -0.32266241 -6.92577923 -1.88884888 0 0 Z M21 46 C22.53678891 59.35899198 22.53678891 59.35899198 27.625 71.625 C31.35100722 73.78216207 34.81591133 73.85176091 39 73 C45.62809766 68.34622931 46.18797845 60.53354572 47.625 53.0625 C47.7590625 52.37865234 47.893125 51.69480469 48.03125 50.99023438 C48.35685049 49.32734617 48.67881344 47.66374639 49 46 C45.10679283 46.51255108 43.01695722 46.98932323 39.625 49.125 C36.19102024 51.2066603 33.77413475 51.3496469 29.859375 50.62890625 C27.06743116 49.6845723 25.15357245 47.96355135 23 46 C22.34 46 21.68 46 21 46 Z M-10.0625 55 C-11.16770214 57.00936999 -11.16770214 57.00936999 -11.0625 59.5 C-9.49591888 63.18607322 -7.5383283 64.19866923 -4 66 C0.22527024 67.25731726 3.68998048 67.39378943 7.8125 65.75 C11.43543796 63.91479426 11.43543796 63.91479426 14 61 C14.57381284 57.22922989 14.3185391 55.51910076 12.3125 52.25 C9.26094773 49.28092212 6.81217512 48.34284394 2.6875 47.5625 C-2.36873817 48.38560854 -6.43863478 51.48594887 -10.0625 55 Z " fill="#999BAC" transform="translate(35,14)"/>
<path d="M0 0 C0.33 1.32 0.66 2.64 1 4 C-2.28696233 4.79953138 -3.71023192 5.09658936 -7 4 C-9.16427296 4.45599341 -9.16427296 4.45599341 -11 6 C-14.78461397 13.56922794 -13.043515 22.91275879 -12 31 C-11.2575 31.268125 -10.515 31.53625 -9.75 31.8125 C-7 33 -7 33 -5.25 34.6875 C-1.56350723 36.83795412 1.97675517 36.03125331 6 35 C8.46587456 33.82622478 10.67197765 32.44337386 13 31 C13.99 31 14.98 31 16 31 C16.11622939 27.25026094 16.1872595 23.50098536 16.25 19.75 C16.28351563 18.68652344 16.31703125 17.62304688 16.3515625 16.52734375 C16.36445312 15.50253906 16.37734375 14.47773437 16.390625 13.421875 C16.41157227 12.47924805 16.43251953 11.53662109 16.45410156 10.56542969 C15.8651813 7.23834682 14.61902095 6.06244888 12 4 C9.62537209 3.73021061 9.62537209 3.73021061 7.25 4.25 C6.45078125 4.37890625 5.6515625 4.5078125 4.828125 4.640625 C4.22484375 4.75921875 3.6215625 4.8778125 3 5 C3 3.35 3 1.7 3 0 C7.86088633 0.60761079 12.64340976 1.7039592 17 4 C19.37886644 7.56829966 19.30512659 10.068345 19.25 14.1875 C19.24395752 14.91783447 19.23791504 15.64816895 19.23168945 16.40063477 C19.11768083 23.09397717 18.69392025 29.76360451 18.1875 36.4375 C18.08260254 37.92769653 18.08260254 37.92769653 17.97558594 39.44799805 C16.6132249 55.6945605 16.6132249 55.6945605 11.4375 61.125 C9 63 9 63 7 63 C7.12375 64.36125 7.12375 64.36125 7.25 65.75 C7 69 7 69 5 71.375 C4.34 71.91125 3.68 72.4475 3 73 C3 72.34 3 71.68 3 71 C2.34 71 1.68 71 1 71 C0.67 71.66 0.34 72.32 0 73 C-2 70 -2 70 -2.3125 67 C-2.69031042 63.8238027 -2.69031042 63.8238027 -5.375 62.3125 C-6.24125 61.879375 -7.1075 61.44625 -8 61 C-12.80907031 57.29978801 -13.06056282 50.63662309 -14 45 C-14.11043271 42.80607019 -14.06488441 40.68170754 -13.97265625 38.48828125 C-14.00874388 35.20430715 -14.51506848 32.05986901 -15 28.8125 C-17.08039611 13.85776854 -17.08039611 13.85776854 -16 7 C-13.70763393 4.04618029 -11.5048973 2.48219046 -8 1.25 C-7.34 1.00765625 -6.68 0.7653125 -6 0.515625 C-4 0 -4 0 0 0 Z M-12 33 C-10.46321109 46.35899198 -10.46321109 46.35899198 -5.375 58.625 C-1.64899278 60.78216207 1.81591133 60.85176091 6 60 C12.62809766 55.34622931 13.18797845 47.53354572 14.625 40.0625 C14.7590625 39.37865234 14.893125 38.69480469 15.03125 37.99023438 C15.35685049 36.32734617 15.67881344 34.66374639 16 33 C12.10679283 33.51255108 10.01695722 33.98932323 6.625 36.125 C3.19102024 38.2066603 0.77413475 38.3496469 -3.140625 37.62890625 C-5.93256884 36.6845723 -7.84642755 34.96355135 -10 33 C-10.66 33 -11.32 33 -12 33 Z " fill="#8D98EB" transform="translate(68,27)"/>
<path d="M0 0 C2.70567626 1.82339052 4.53728718 3.07457436 6 6 C6.60671735 10.20094163 6.86238967 14.22255563 4.9765625 18.109375 C1.35726585 22.7884657 -3.17756151 25.06840984 -9 26 C-9.66 25.67 -10.32 25.34 -11 25 C-11 26.65 -11 28.3 -11 30 C-12.32 29.67 -13.64 29.34 -15 29 C-15 28.01 -15 27.02 -15 26 C-16.18784464 21.38572344 -16.18784464 21.38572344 -18 17 C-18.58378872 11.2594109 -18.16609942 7.99988889 -14.484375 3.48046875 C-9.99027943 -1.00180025 -6.00980886 -1.63903878 0 0 Z " fill="#7C88EF" transform="translate(35,14)"/>
<path d="M0 0 C0.33 1.32 0.66 2.64 1 4 C-2.28696233 4.79953138 -3.71023192 5.09658936 -7 4 C-9.16427296 4.45599341 -9.16427296 4.45599341 -11 6 C-14.78461397 13.56922794 -13.043515 22.91275879 -12 31 C-11.2575 31.268125 -10.515 31.53625 -9.75 31.8125 C-7 33 -7 33 -5.25 34.6875 C-1.56350723 36.83795412 1.97675517 36.03125331 6 35 C8.46587456 33.82622478 10.67197765 32.44337386 13 31 C13.99 31 14.98 31 16 31 C16.11622939 27.25026094 16.1872595 23.50098536 16.25 19.75 C16.28351563 18.68652344 16.31703125 17.62304688 16.3515625 16.52734375 C16.36445312 15.50253906 16.37734375 14.47773437 16.390625 13.421875 C16.41157227 12.47924805 16.43251953 11.53662109 16.45410156 10.56542969 C15.8651813 7.23834682 14.61902095 6.06244888 12 4 C9.62537209 3.73021061 9.62537209 3.73021061 7.25 4.25 C6.45078125 4.37890625 5.6515625 4.5078125 4.828125 4.640625 C4.22484375 4.75921875 3.6215625 4.8778125 3 5 C3 3.35 3 1.7 3 0 C7.86088633 0.60761079 12.64340976 1.7039592 17 4 C19.47500846 7.71251268 19.30279839 10.5799454 19.25 14.875 C19.24613281 15.62644287 19.24226563 16.37788574 19.23828125 17.15209961 C19.13538685 23.89811385 18.29074712 30.37339647 17 37 C16.34 37 15.68 37 15 37 C15 36.01 15 35.02 15 34 C11.52059169 34.42174646 9.69814118 35.19364528 6.6875 37.125 C3.27060662 39.14845313 0.88466796 39.40851326 -3 38.6953125 C-6.54239946 37.46377519 -9.10303625 35.35378305 -12 33 C-11.67 34.32 -11.34 35.64 -11 37 C-11.99 36.67 -12.98 36.34 -14 36 C-17.27726894 15.10741049 -17.27726894 15.10741049 -16 7 C-13.70763393 4.04618029 -11.5048973 2.48219046 -8 1.25 C-7.34 1.00765625 -6.68 0.7653125 -6 0.515625 C-4 0 -4 0 0 0 Z " fill="#E1E1E2" transform="translate(68,27)"/>
<path d="M0 0 C1.875 1.0625 1.875 1.0625 3 3 C3.3125 6.5625 3.3125 6.5625 3 10 C1 12 1 12 -1.6015625 12.1953125 C-2.59929688 12.17210937 -3.59703125 12.14890625 -4.625 12.125 C-6.12933594 12.09792969 -6.12933594 12.09792969 -7.6640625 12.0703125 C-8.43492188 12.04710937 -9.20578125 12.02390625 -10 12 C-10.8125 8.8125 -10.8125 8.8125 -11 5 C-7.87691565 0.55197078 -5.41952768 -0.94252655 0 0 Z " fill="#797FA9" transform="translate(32,18)"/>
<path d="M0 0 C1.20628008 2.33214148 2.1654738 4.49642139 3 7 C3.66 7.33 4.32 7.66 5 8 C5 6.35 5 4.7 5 3 C5.99 3.33 6.98 3.66 8 4 C7.01455437 6.65312285 5.98640344 9.02209441 4.5 11.4375 C2.06814859 15.59191283 0.99191622 19.56296411 0.5 24.3125 C0.335 25.529375 0.17 26.74625 0 28 C-0.66 28.33 -1.32 28.66 -2 29 C-2.02726927 26.64575325 -2.04696719 24.29183038 -2.0625 21.9375 C-2.07990234 19.97103516 -2.07990234 19.97103516 -2.09765625 17.96484375 C-2.00533651 14.21666245 -1.60414686 10.69595725 -1 7 C-0.814375 5.700625 -0.62875 4.40125 -0.4375 3.0625 C-0.293125 2.051875 -0.14875 1.04125 0 0 Z " fill="#8E90A0" transform="translate(19,36)"/>
<path d="M0 0 C0.99 0 1.98 0 3 0 C3 0.66 3 1.32 3 2 C6.3 2.33 9.6 2.66 13 3 C12.34 4.32 11.68 5.64 11 7 C10.34 7 9.68 7 9 7 C8.67 8.65 8.34 10.3 8 12 C7.01 11.67 6.02 11.34 5 11 C5 12.65 5 14.3 5 16 C3.68 15.67 2.36 15.34 1 15 C1 12.66666667 1 10.33333333 1 8 C1.66 8 2.32 8 3 8 C2.505 7.236875 2.01 6.47375 1.5 5.6875 C0 3 0 3 0 0 Z " fill="#6070F7" transform="translate(19,28)"/>
<path d="M0 0 C1.32 0.33 2.64 0.66 4 1 C3.71657321 3.39706699 3.42356312 5.79231083 3.125 8.1875 C3.04636719 8.86103516 2.96773438 9.53457031 2.88671875 10.22851562 C2.39528587 14.10327484 1.64019099 17.45084723 0 21 C-0.99 21 -1.98 21 -3 21 C-3 21.66 -3 22.32 -3 23 C-3.66 23 -4.32 23 -5 23 C-4.49560292 20.22581603 -3.8735908 17.578636 -3.0625 14.875 C-1.62629625 10.00486549 -0.84975772 4.99910657 0 0 Z " fill="#8590E7" transform="translate(82,64)"/>
<path d="M0 0 C0.33 0.66 0.66 1.32 1 2 C-0.5778125 2.0928125 -0.5778125 2.0928125 -2.1875 2.1875 C-6.70459275 3.15015911 -8.25177691 4.33570254 -11 8 C-11.41986946 10.71163778 -11.41986946 10.71163778 -11 13 C-11.99 13 -12.98 13 -14 13 C-13.2575 14.1446875 -13.2575 14.1446875 -12.5 15.3125 C-11 18 -11 18 -11 21 C-11.66 21 -12.32 21 -13 21 C-15.77731046 17.58177174 -16.58924363 14.47656966 -16.421875 10.06640625 C-15.6777586 6.42161386 -13.74061174 3.48818697 -11 1 C-7.37396161 -0.28665878 -3.81778658 -0.07341897 0 0 Z " fill="#6975E6" transform="translate(33,15)"/>
<path d="M0 0 C4.86088633 0.60761079 9.64340976 1.7039592 14 4 C16.03120707 7.04681061 16.24659875 7.60118324 16.1953125 11.01171875 C16.18886719 11.76904297 16.18242188 12.52636719 16.17578125 13.30664062 C16.15902344 14.09232422 16.14226562 14.87800781 16.125 15.6875 C16.11597656 16.48478516 16.10695313 17.28207031 16.09765625 18.10351562 C16.07411585 20.069139 16.03824547 22.03460775 16 24 C13.20574586 19.80861879 13.66284386 16.07453407 13.5390625 11.12890625 C13.22417234 7.93926883 13.22417234 7.93926883 11.2578125 5.57421875 C8.52869521 3.67139129 7.475313 3.68082712 4.25 4.25 C3.45078125 4.37890625 2.6515625 4.5078125 1.828125 4.640625 C0.92320313 4.81851562 0.92320313 4.81851562 0 5 C0 3.35 0 1.7 0 0 Z " fill="#E2E2E5" transform="translate(71,27)"/>
<path d="M0 0 C0.33 1.32 0.66 2.64 1 4 C-2.28696233 4.79953138 -3.71023192 5.09658936 -7 4 C-9.16427296 4.45599341 -9.16427296 4.45599341 -11 6 C-12.29231642 9.04199472 -12.29231642 9.04199472 -13 12 C-13.33 12 -13.66 12 -14 12 C-14.33 14.97 -14.66 17.94 -15 21 C-15.33 21 -15.66 21 -16 21 C-16.10823773 18.75106046 -16.18569645 16.50062425 -16.25 14.25 C-16.29640625 12.99703125 -16.3428125 11.7440625 -16.390625 10.453125 C-16 7 -16 7 -14.234375 4.65625 C-12.14765717 3.10945217 -10.43833257 2.1072263 -8 1.25 C-7.34 1.00765625 -6.68 0.7653125 -6 0.515625 C-4 0 -4 0 0 0 Z " fill="#F2F2F2" transform="translate(68,27)"/>
<path d="M0 0 C5.02705917 0.12047418 8.09872551 0.24587237 12.0625 3.5625 C12.701875 4.366875 13.34125 5.17125 14 6 C13.34 7.32 12.68 8.64 12 10 C11.154375 9.21625 10.30875 8.4325 9.4375 7.625 C6.12074083 4.83068977 3.20395906 3.92487099 -1 3 C-0.67 2.01 -0.34 1.02 0 0 Z " fill="#9799A9" transform="translate(37,59)"/>
<path d="M0 0 C0.66 0.33 1.32 0.66 2 1 C2.33 1.99 2.66 2.98 3 4 C1.75747321 4.84443568 0.5056114 5.6751458 -0.75 6.5 C-1.44609375 6.9640625 -2.1421875 7.428125 -2.859375 7.90625 C-5 9 -5 9 -9 9 C-9 8.34 -9 7.68 -9 7 C-10.65 7 -12.3 7 -14 7 C-14 6.67 -14 6.34 -14 6 C-12.80375 5.7525 -11.6075 5.505 -10.375 5.25 C-6.20550902 4.22617481 -3.4176247 2.56321852 0 0 Z " fill="#A4A5B4" transform="translate(59,114)"/>
<path d="M0 0 C1.98 0 3.96 0 6 0 C6 2.31 6 4.62 6 7 C4.34385343 7.38218767 2.67542976 7.71395102 1 8 C0 7 0 7 -0.0625 3.4375 C-0.041875 2.303125 -0.02125 1.16875 0 0 Z " fill="#616FF7" transform="translate(68,89)"/>
<path d="M0 0 C1.20628008 2.33214148 2.1654738 4.49642139 3 7 C3.66 7.33 4.32 7.66 5 8 C5 6.35 5 4.7 5 3 C5.99 3.33 6.98 3.66 8 4 C6.6302836 7.99500618 4.74277578 10.80009492 2 14 C-0.66464729 8.77729131 -1.32854177 5.9180497 0 0 Z " fill="#A0A6DF" transform="translate(19,36)"/>
<path d="M0 0 C0.33 0 0.66 0 1 0 C1.33 3.3 1.66 6.6 2 10 C2.33 7.36 2.66 4.72 3 2 C3.33 2 3.66 2 4 2 C4.06058594 2.84304687 4.12117188 3.68609375 4.18359375 4.5546875 C4.26738281 5.65039062 4.35117187 6.74609375 4.4375 7.875 C4.51871094 8.96554688 4.59992187 10.05609375 4.68359375 11.1796875 C4.83001703 13.94728971 4.83001703 13.94728971 6 16 C4.35 16.33 2.7 16.66 1 17 C-0.18681726 13.43954823 -0.09689832 10.56191663 -0.0625 6.8125 C-0.05347656 5.54019531 -0.04445313 4.26789062 -0.03515625 2.95703125 C-0.02355469 1.98121094 -0.01195312 1.00539062 0 0 Z " fill="#B0B1C1" transform="translate(16,54)"/>
<path d="M0 0 C1.65322266 0.01740234 1.65322266 0.01740234 3.33984375 0.03515625 C4.99693359 0.04869141 4.99693359 0.04869141 6.6875 0.0625 C7.54214844 0.07410156 8.39679687 0.08570312 9.27734375 0.09765625 C9.27734375 1.08765625 9.27734375 2.07765625 9.27734375 3.09765625 C7.67355034 3.15181813 6.06922969 3.19052263 4.46484375 3.22265625 C3.57152344 3.24585937 2.67820312 3.2690625 1.7578125 3.29296875 C-0.72265625 3.09765625 -0.72265625 3.09765625 -3.72265625 1.09765625 C-2.72265625 0.09765625 -2.72265625 0.09765625 0 0 Z " fill="#858899" transform="translate(40.72265625,120.90234375)"/>
<path d="M0 0 C2.97 0.99 5.94 1.98 9 3 C8.34 3.66 7.68 4.32 7 5 C7.66 5.66 8.32 6.32 9 7 C2.25 6.25 2.25 6.25 0 4 C0 2.68 0 1.36 0 0 Z " fill="#A7A9B9" transform="translate(31,117)"/>
<path d="M0 0 C0.66 0 1.32 0 2 0 C2.36923077 6.52307692 2.36923077 6.52307692 0.5 8.9375 C0.005 9.288125 -0.49 9.63875 -1 10 C-2 9 -2 9 -2.1875 6.125 C-2 3 -2 3 0 0 Z " fill="#8F92A6" transform="translate(69,98)"/>
<path d="M0 0 C3.96 0.99 3.96 0.99 8 2 C7.01 2.66 6.02 3.32 5 4 C5.66 4.66 6.32 5.32 7 6 C1.46153846 5.38461538 1.46153846 5.38461538 -0.875 3.4375 C-1.24625 2.963125 -1.6175 2.48875 -2 2 C-1.34 2 -0.68 2 0 2 C0 1.34 0 0.68 0 0 Z " fill="#A9AABA" transform="translate(27,78)"/>
<path d="M0 0 C0.99 0 1.98 0 3 0 C3 3.3 3 6.6 3 10 C2.34 10 1.68 10 1 10 C-0.60725635 6.78548731 -0.05748185 3.56387464 0 0 Z " fill="#7E88E1" transform="translate(54,64)"/>
<path d="M0 0 C0.33 1.98 0.66 3.96 1 6 C0.34 6 -0.32 6 -1 6 C-1.33 6.66 -1.66 7.32 -2 8 C-2.66 5.69 -3.32 3.38 -4 1 C-2 0 -2 0 0 0 Z " fill="#9F9EAB" transform="translate(22,101)"/>
<path d="M0 0 C2.475 0.495 2.475 0.495 5 1 C5 2.32 5 3.64 5 5 C3.35 5 1.7 5 0 5 C0 3.35 0 1.7 0 0 Z " fill="#8C93E5" transform="translate(71,27)"/>
<path d="M0 0 C2.17595597 4.19648651 3.97198576 8.37393594 5 13 C4.34 13 3.68 13 3 13 C-0.4887612 8.70614007 -0.26854022 5.28129105 0 0 Z " fill="#9098F1" transform="translate(17,23)"/>
<path d="M0 0 C0.33 0.66 0.66 1.32 1 2 C-2.63 2.66 -6.26 3.32 -10 4 C-10.33 3.01 -10.66 2.02 -11 1 C-7.32589215 -0.17571451 -3.83070817 -0.07366746 0 0 Z " fill="#6771F3" transform="translate(33,15)"/>
<path d="M0 0 C0.99 1.32 1.98 2.64 3 4 C0.525 5.485 0.525 5.485 -2 7 C-2.33 6.34 -2.66 5.68 -3 5 C-3.66 4.67 -4.32 4.34 -5 4 C-3.35 2.68 -1.7 1.36 0 0 Z " fill="#ACAEBD" transform="translate(48,75)"/>
<path d="M0 0 C1.32 0 2.64 0 4 0 C4.33 1.32 4.66 2.64 5 4 C3.35 4.33 1.7 4.66 0 5 C0 3.35 0 1.7 0 0 Z " fill="#8691E7" transform="translate(64,27)"/>
<path d="M0 0 C0 0.99 0 1.98 0 3 C-3 4 -6 5 -9 6 C-9 5.01 -9 4.02 -9 3 C-6.03 2.01 -3.06 1.02 0 0 Z " fill="#DEDEE6" transform="translate(63,28)"/>
<path d="M0 0 C0.33 0.66 0.66 1.32 1 2 C1.99 2.33 2.98 2.66 4 3 C2.68 4.32 1.36 5.64 0 7 C0 6.34 0 5.68 0 5 C-0.66 5 -1.32 5 -2 5 C-1.34 3.35 -0.68 1.7 0 0 Z " fill="#A7A6B6" transform="translate(24,64)"/>
<path d="M0 0 C0.99 0.33 1.98 0.66 3 1 C2.34 2.65 1.68 4.3 1 6 C-0.65 6 -2.3 6 -4 6 C-2.68 5.67 -1.36 5.34 0 5 C0 3.35 0 1.7 0 0 Z " fill="#8893E6" transform="translate(24,39)"/>
</svg>
