<?xml version="1.0" encoding="UTF-8"?>
<svg version="1.1" xmlns="http://www.w3.org/2000/svg" width="281" height="80">
<path d="M0 0 C92.73 0 185.46 0 281 0 C281 26.4 281 52.8 281 80 C188.27 80 95.54 80 0 80 C0 53.6 0 27.2 0 0 Z " fill="#FDFEFE" transform="translate(0,0)"/>
<path d="M0 0 C2.97 -0.0825 5.94 -0.165 9 -0.25 C10.37865234 -0.30462402 10.37865234 -0.30462402 11.78515625 -0.36035156 C17.64107777 -0.43819615 22.17176906 0.56196535 27 4 C31.84159807 10.08303347 32.79726687 15.42035022 32 23 C30.60819995 27.66849503 28.75690968 30.39756169 24.9375 33.4375 C21.27208305 35.38718987 18.64195346 36.12511378 14.55078125 36.09765625 C13.78677002 36.09515869 13.02275879 36.09266113 12.2355957 36.09008789 C11.27097412 36.08098389 10.30635254 36.07187988 9.3125 36.0625 C4.7028125 36.0315625 4.7028125 36.0315625 0 36 C0 24.12 0 12.24 0 0 Z " fill="#6978FF" transform="translate(67,23)"/>
<path d="M0 0 C0 0.66 0 1.32 0 2 C-1.98 2.33 -3.96 2.66 -6 3 C-6.33 7.62 -6.66 12.24 -7 17 C-2.90709128 19.04645436 -1.41678548 19.35334284 3 19 C4.98 18.34 6.96 17.68 9 17 C9 12.05 9 7.1 9 2 C9.66 2.33 10.32 2.66 11 3 C11.054348 5.0622048 11.09294961 7.12482816 11.125 9.1875 C11.14820313 10.33605469 11.17140625 11.48460937 11.1953125 12.66796875 C11.00134274 15.97709285 10.32271899 18.00313851 9 21 C8.60536939 22.72038312 8.25023731 24.45036248 7.9375 26.1875 C7.10117647 30.79764706 7.10117647 30.79764706 6 33 C3.35139573 33.59355614 0.70802678 33.74209269 -2 34 C-3.89865603 31.02819057 -5.35455571 28.48539917 -6 25 C-5.89592083 28.40080577 -5.89592083 28.40080577 -5 32 C-4.154375 32.45375 -3.30875 32.9075 -2.4375 33.375 C0 35 0 35 0.43359375 37 C0.56549928 41.7175626 0.28980187 45.4017792 -3 49 C-7.74988336 52.25217239 -12.18774776 53.96870871 -18 53 C-22.64886988 50.139157 -24.8639374 47.37834662 -26.5390625 42.1953125 C-27.43973023 37.9056916 -28.0013229 33.0026458 -26 29 C-25.319375 29.33 -24.63875 29.66 -23.9375 30 C-20.39644353 31.20546603 -17.72083033 31.3382573 -14 31 C-11.55754253 29.96057155 -11.55754253 29.96057155 -10 28 C-8.32743123 22.50289499 -9.04906765 16.53228427 -9.30273438 10.86132812 C-9.43514028 4.60882685 -9.43514028 4.60882685 -7.16015625 1.42578125 C-4.56558818 -0.28672751 -3.05054367 -0.3389493 0 0 Z " fill="#FBFCFD" transform="translate(47,17)"/>
<path d="M0 0 C4.08098147 3.70998316 5.26270303 7.48675723 5.5625 12.875 C5.45572105 16.42006129 5.03074648 18.58165257 2.8125 21.375 C-1.45471329 25.25428481 -3.96863511 26.36452856 -9.91015625 26.1875 C-13.36406706 25.65510527 -15.35594495 24.15637423 -17.9375 21.875 C-21.23195804 17.15294347 -21.84895503 12.47393805 -20.9375 6.875 C-16.58523375 -1.67409442 -8.76717967 -3.35764328 0 0 Z " fill="#6978FF" transform="translate(121.9375,34.125)"/>
<path d="M0 0 C1.9375 1.0625 1.9375 1.0625 3 3 C2.87535167 6.4901531 2.66966454 9.01144759 0.6875 11.9375 C-1 13 -1 13 -5 13 C-5.12375 13.556875 -5.2475 14.11375 -5.375 14.6875 C-6 17 -6 17 -7 19.1875 C-8.3774857 23.06167853 -8.66222175 26.91999427 -9 31 C-8.34 31 -7.68 31 -7 31 C-6.71125 30.360625 -6.4225 29.72125 -6.125 29.0625 C-5 27 -5 27 -3 26 C4.11699779 25.42604857 4.11699779 25.42604857 7.5 27.625 C9.46942769 30.74326051 9.67927401 32.37720527 9 36 C6.26798367 39.14595819 4.64237563 39.91970305 0.5 40.4375 C-3.13108948 39.98361382 -5.06927557 39.13143595 -8 37 C-8.40613563 45.18288089 -8.51418789 52.09534679 -2.75 58.5 C0.82143154 60.44805357 2.97643571 60.49412193 7 60 C10.25058324 58.58376759 10.25058324 58.58376759 13 57 C13.66 57 14.32 57 15 57 C17.20399168 52.44508386 17.58846263 47.97093824 18 43 C17.06414063 42.814375 17.06414063 42.814375 16.109375 42.625 C14 42 14 42 12.25 40 C10.5571941 35.93726584 10.74466106 32.34076193 11 28 C11.33 28 11.66 28 12 28 C12.20496094 28.85464844 12.40992187 29.70929687 12.62109375 30.58984375 C12.89050781 31.69457031 13.15992187 32.79929688 13.4375 33.9375 C13.70433594 35.03964844 13.97117187 36.14179687 14.24609375 37.27734375 C14.72995725 39.89421254 14.72995725 39.89421254 16 41 C18.67058851 41.14115161 21.32432238 41.04247107 24 41 C24.18175781 39.71802734 24.18175781 39.71802734 24.3671875 38.41015625 C24.61855469 36.75306641 24.61855469 36.75306641 24.875 35.0625 C25.03742187 33.96035156 25.19984375 32.85820313 25.3671875 31.72265625 C25.57601562 30.82417969 25.78484375 29.92570312 26 29 C26.66 28.67 27.32 28.34 28 28 C27.91245449 29.75091019 27.80426627 31.50079551 27.6875 33.25 C27.60048828 34.71179687 27.60048828 34.71179687 27.51171875 36.203125 C26.9490829 39.27829497 26.15665346 40.76347048 24 43 C23.34 43 22.68 43 22 43 C21.9175 43.639375 21.835 44.27875 21.75 44.9375 C20.2927767 50.88782847 18.07805492 57.26613609 13 61 C8.59549655 62.95755709 4.79408859 63.51365235 0 63 C-4.84268684 60.53117926 -7.46249715 57.77806387 -10 53 C-10.44376875 49.75022533 -10.33513809 46.58305902 -10.1875 43.3125 C-10.13516597 41.62121727 -10.08681815 39.92980523 -10.04296875 38.23828125 C-10.01227295 37.49618408 -9.98157715 36.75408691 -9.94995117 35.98950195 C-9.90836529 33.78778781 -9.90836529 33.78778781 -11 31 C-11.09308544 29.33541327 -11.12996185 27.66718003 -11.125 26 C-11.12757812 25.13375 -11.13015625 24.2675 -11.1328125 23.375 C-11 21 -11 21 -10 18 C-10.04752473 14.44428595 -10.19484856 10.89997711 -10.35546875 7.34765625 C-10 4 -10 4 -8.1796875 1.5859375 C-5.258597 -0.53944376 -3.53435796 -0.52639374 0 0 Z " fill="#8A8DA5" transform="translate(29,9)"/>
<path d="M0 0 C8.25 0 16.5 0 25 0 C25 1.98 25 3.96 25 6 C18.73 6 12.46 6 6 6 C6 9.3 6 12.6 6 16 C11.28 16 16.56 16 22 16 C22 16.99 22 17.98 22 19 C16.72 19 11.44 19 6 19 C6 22.63 6 26.26 6 30 C12.27 30 18.54 30 25 30 C25 31.98 25 33.96 25 36 C16.75 36 8.5 36 0 36 C0 24.12 0 12.24 0 0 Z " fill="#6777FF" transform="translate(157,23)"/>
<path d="M0 0 C3.29506242 1.26960291 3.95326433 1.92989649 6 5 C6.14245897 7.76655324 6.18769445 10.42653306 6.125 13.1875 C6.11597656 13.93708984 6.10695312 14.68667969 6.09765625 15.45898438 C6.07412578 17.30612654 6.03825561 19.15310412 6 21 C6.99 21 7.98 21 9 21 C9 22.65 9 24.3 9 26 C6.625 26.625 6.625 26.625 4 27 C1.8614515 24.8614515 1.57344937 23.86724686 1 21 C0.360625 21.804375 -0.27875 22.60875 -0.9375 23.4375 C-4.4209505 26.35222389 -6.40859082 26.94378896 -10.83984375 27.1953125 C-13 27 -13 27 -16.0625 25.4375 C-18 23 -18 23 -18.625 20 C-18 17 -18 17 -15.6875 14.6875 C-11.72200291 12.19753671 -8.90344413 11.88348889 -4.3125 11.9375 C-3.31863281 11.94652344 -2.32476562 11.95554687 -1.30078125 11.96484375 C-0.16189453 11.98224609 -0.16189453 11.98224609 1 12 C0.65555119 9.52733235 0.65555119 9.52733235 0 7 C-2.40545638 5.79727181 -3.94996953 5.89928528 -6.625 5.9375 C-7.44226563 5.94652344 -8.25953125 5.95554687 -9.1015625 5.96484375 C-9.72804687 5.97644531 -10.35453125 5.98804688 -11 6 C-11.33 7.65 -11.66 9.3 -12 11 C-13.32 11 -14.64 11 -16 11 C-16.375 8.3125 -16.375 8.3125 -16 5 C-11.48010821 -0.47144795 -6.88830197 -1.07984932 0 0 Z " fill="#6A79FF" transform="translate(203,33)"/>
<path d="M0 0 C13.77777778 0 13.77777778 0 18 3 C20.97709357 7.46564036 20.49063212 11.76403532 20 17 C18.8125 20.0625 18.8125 20.0625 17 22 C12 24 12 24 0 24 C0 16.08 0 8.16 0 0 Z " fill="#FCFCFF" transform="translate(73,29)"/>
<path d="M0 0 C1.65 0 3.3 0 5 0 C8.25643639 6.16396888 10.72401366 12.41416719 13 19 C13.32613281 18.21496094 13.65226563 17.42992188 13.98828125 16.62109375 C16.29789053 11.06849327 18.61590894 5.52105299 21 0 C22.65 0 24.3 0 26 0 C24.97928882 6.00919022 22.53087089 11.34224103 20.1875 16.9375 C19.74857422 18.00935547 19.30964844 19.08121094 18.85742188 20.18554688 C14.4941354 30.65613776 14.4941354 30.65613776 11 35 C8 36.125 8 36.125 5 36 C2.625 34.3125 2.625 34.3125 1 32 C1 30.68 1 29.36 1 28 C1.8353125 28.5259375 1.8353125 28.5259375 2.6875 29.0625 C5.62168913 30.25203613 7.04588797 30.08835706 10 29 C11.36020151 27.03241727 11.36020151 27.03241727 12 25 C11.34 25 10.68 25 10 25 C8.32742736 21.21091124 6.66294885 17.41832115 5 13.625 C4.28457031 12.00464844 4.28457031 12.00464844 3.5546875 10.3515625 C3.10351562 9.3203125 2.65234375 8.2890625 2.1875 7.2265625 C1.76855469 6.27346191 1.34960938 5.32036133 0.91796875 4.33837891 C0 2 0 2 0 0 Z " fill="#6A79FF" transform="translate(238,33)"/>
<path d="M0 0 C3.1875 1.625 3.1875 1.625 5 4 C5.3125 7.25 5.3125 7.25 5 10 C4.01 10 3.02 10 2 10 C1.67 9.01 1.34 8.02 1 7 C-1.28705831 5.85647084 -2.59264762 5.89665561 -5.125 5.9375 C-6.40375 5.958125 -7.6825 5.97875 -9 6 C-9 7.32 -9 8.64 -9 10 C-8.08476562 10.26554687 -7.16953125 10.53109375 -6.2265625 10.8046875 C-5.03804687 11.15789063 -3.84953125 11.51109375 -2.625 11.875 C-0.84996094 12.39707031 -0.84996094 12.39707031 0.9609375 12.9296875 C4 14 4 14 6 16 C6.375 19.4375 6.375 19.4375 6 23 C2.83744259 26.27161112 -0.32748494 26.94487581 -4.8125 27.3125 C-9.20930644 27.23137811 -11.75752867 26.08430199 -15 23 C-15.875 19.25 -15.875 19.25 -16 16 C-14.68 15.67 -13.36 15.34 -12 15 C-11.71125 15.804375 -11.4225 16.60875 -11.125 17.4375 C-10.26737432 20.1326468 -10.26737432 20.1326468 -8 21 C-4.54213985 21.50007794 -4.54213985 21.50007794 -1 21 C0.7510802 18.54556639 0.7510802 18.54556639 2 16 C1.18015625 15.80664062 0.3603125 15.61328125 -0.484375 15.4140625 C-1.56203125 15.15367188 -2.6396875 14.89328125 -3.75 14.625 C-4.81734375 14.36976562 -5.8846875 14.11453125 -6.984375 13.8515625 C-9.59898031 13.11324131 -11.74146095 12.49865675 -14 11 C-15.11167777 7.24808751 -15.56353821 5.09889951 -13.75 1.5625 C-9.32957364 -0.94910589 -4.95447952 -0.71825295 0 0 Z " fill="#6A79FF" transform="translate(230,33)"/>
<path d="M0 0 C2.91708068 1.32698572 3.87542765 2.42814926 6 5 C6.375 8.3125 6.375 8.3125 6 11 C4.68 11 3.36 11 2 11 C1.566875 10.175 1.13375 9.35 0.6875 8.5 C0.130625 7.675 -0.42625 6.85 -1 6 C-4.9752261 5.34950846 -7.05688738 5.37125825 -10.4375 7.625 C-12.4379879 10.66574161 -12.3732409 12.41688738 -12 16 C-11.68242132 17.33717339 -11.35216283 18.67151582 -11 20 C-9.20906809 20.08086147 -7.41710372 20.13912702 -5.625 20.1875 C-4.62726563 20.22230469 -3.62953125 20.25710937 -2.6015625 20.29296875 C-1.31378906 20.14794922 -1.31378906 20.14794922 0 20 C0.66 19.01 1.32 18.02 2 17 C3.32 17.33 4.64 17.66 6 18 C5.45712148 21.80014965 3.88535357 23.53896313 1 26 C-2.61930698 27.20643566 -5.19231005 27.32268559 -9 27 C-13.01190944 24.88050067 -15.36680806 23.23145185 -17 19 C-17.62008652 14.31345135 -18.12742356 9.2338913 -15.94921875 4.91796875 C-11.42469763 -0.5675126 -6.74573759 -0.90768335 0 0 Z " fill="#6978FF" transform="translate(147,33)"/>
<path d="M0 0 C0 0.66 0 1.32 0 2 C-1.98 2.33 -3.96 2.66 -6 3 C-6.33 7.62 -6.66 12.24 -7 17 C-2.90709128 19.04645436 -1.41678548 19.35334284 3 19 C4.98 18.34 6.96 17.68 9 17 C9 12.05 9 7.1 9 2 C9.66 2.33 10.32 2.66 11 3 C11.054348 5.0622048 11.09294961 7.12482816 11.125 9.1875 C11.14820312 10.33605469 11.17140625 11.48460937 11.1953125 12.66796875 C11.00134274 15.97709285 10.32271899 18.00313851 9 21 C8.60536939 22.72038312 8.25023731 24.45036248 7.9375 26.1875 C7.10117647 30.79764706 7.10117647 30.79764706 6 33 C3.35139573 33.59355614 0.70802678 33.74209269 -2 34 C-3.80066242 31.0534615 -5.50163895 28.11198065 -7 25 C-7.66 25.66 -8.32 26.32 -9 27 C-9.11622939 23.25026094 -9.1872595 19.50098536 -9.25 15.75 C-9.28351562 14.68652344 -9.31703125 13.62304688 -9.3515625 12.52734375 C-9.36445312 11.50253906 -9.37734375 10.47773438 -9.390625 9.421875 C-9.41157227 8.47924805 -9.43251953 7.53662109 -9.45410156 6.56542969 C-8.50212482 1.18727288 -5.15514956 -0.5727944 0 0 Z " fill="#F6F7FA" transform="translate(47,17)"/>
<path d="M0 0 C2.5 1.4375 2.5 1.4375 4 4 C4.59864703 7.81207418 5.06099601 11.4716199 2.78515625 14.75 C0.43015336 16.39901734 -1.14224862 16.43324739 -4 16.4375 C-4.86625 16.45683594 -5.7325 16.47617187 -6.625 16.49609375 C-9 16 -9 16 -10.78515625 14.22265625 C-12.66879416 10.77638625 -12.6817061 7.82382274 -12 4 C-9.15467665 -0.74220558 -5.08013991 -0.98896166 0 0 Z " fill="#FCFCFF" transform="translate(118,38)"/>
<path d="M0 0 C0.33 0 0.66 0 1 0 C1.20496094 0.85464844 1.40992187 1.70929687 1.62109375 2.58984375 C1.89050781 3.69457031 2.15992187 4.79929687 2.4375 5.9375 C2.70433594 7.03964844 2.97117187 8.14179687 3.24609375 9.27734375 C3.72995725 11.89421254 3.72995725 11.89421254 5 13 C7.67058851 13.14115161 10.32432238 13.04247107 13 13 C13.18175781 11.71802734 13.18175781 11.71802734 13.3671875 10.41015625 C13.53476562 9.30542969 13.70234375 8.20070313 13.875 7.0625 C14.03742187 5.96035156 14.19984375 4.85820313 14.3671875 3.72265625 C14.57601562 2.82417969 14.78484375 1.92570312 15 1 C15.66 0.67 16.32 0.34 17 0 C16.91245449 1.75091019 16.80426627 3.50079551 16.6875 5.25 C16.60048828 6.71179687 16.60048828 6.71179687 16.51171875 8.203125 C15.9490829 11.27829497 15.15665346 12.76347048 13 15 C12.34 15 11.68 15 11 15 C10.9175 15.639375 10.835 16.27875 10.75 16.9375 C9.2927767 22.88782847 7.07805492 29.26613609 2 33 C-2.40450345 34.95755709 -6.20591141 35.51365235 -11 35 C-15.75895406 32.57386656 -18.56949389 29.76379198 -21 25 C-20.75 22.125 -20.75 22.125 -20 20 C-19.7525 20.53625 -19.505 21.0725 -19.25 21.625 C-17.01390094 25.87358821 -15.03188725 29.31207517 -11 32 C-5.70039935 32.49996233 -2.60374832 31.56953394 2 29 C2.66 29 3.32 29 4 29 C6.20399168 24.44508386 6.58846263 19.97093824 7 15 C6.37609375 14.87625 5.7521875 14.7525 5.109375 14.625 C3 14 3 14 1.25 12 C-0.4428059 7.93726584 -0.25533894 4.34076193 0 0 Z " fill="#9698AE" transform="translate(40,37)"/>
<path d="M0 0 C1.9375 1.0625 1.9375 1.0625 3 3 C2.87535167 6.4901531 2.66966454 9.01144759 0.6875 11.9375 C-1 13 -1 13 -5 13 C-5.33 14.32 -5.66 15.64 -6 17 C-6.99 17 -7.98 17 -9 17 C-9.2765289 14.92002174 -9.52030075 12.8356692 -9.75 10.75 C-9.88921875 9.58984375 -10.0284375 8.4296875 -10.171875 7.234375 C-10 4 -10 4 -8.20703125 1.60546875 C-5.2684575 -0.53214862 -3.55642669 -0.52968057 0 0 Z " fill="#6675FC" transform="translate(29,9)"/>
<path d="M0 0 C4.34450629 1.41668683 4.34450629 1.41668683 5.875 3.9375 C5.75 6.5 5.75 6.5 4.875 8.9375 C1.16486601 11.41092266 -0.73560262 11.32253486 -5.125 10.9375 C-7.5625 9.4375 -7.5625 9.4375 -9.125 7.9375 C-8.80152831 4.91843088 -8.06581617 3.87493424 -5.9375 1.625 C-3.125 -0.0625 -3.125 -0.0625 0 0 Z " fill="#F9F9FA" transform="translate(31.125,36.0625)"/>
<path d="M0 0 C-3 2 -3 2 -5 3 C-4.67 4.65 -4.34 6.3 -4 8 C1.445 7.505 1.445 7.505 7 7 C4.88780202 11.22439597 4.14536134 12.11574484 0 14 C-3.8225825 14.55745995 -5.4963187 14.28468943 -8.875 12.375 C-11 10 -11 10 -11.625 7 C-11 4 -11 4 -8.875 1.625 C-5.60790131 -0.221621 -3.69212837 -0.3434538 0 0 Z " fill="#6776FF" transform="translate(196,46)"/>
<path d="M0 0 C1.50433594 0.01353516 1.50433594 0.01353516 3.0390625 0.02734375 C3.80992187 0.03894531 4.58078125 0.05054688 5.375 0.0625 C4.6484375 4.8359375 4.6484375 4.8359375 2.1875 6.875 C-1.0208477 8.2296357 -3.17548089 8.4457799 -6.625 8.0625 C-7.285 7.4025 -7.945 6.7425 -8.625 6.0625 C-8.375 3.5 -8.375 3.5 -7.625 1.0625 C-4.98041621 -0.25979189 -2.94738699 -0.03427194 0 0 Z " fill="#F7F8FF" transform="translate(198.625,46.9375)"/>
<path d="M0 0 C0.33 0 0.66 0 1 0 C1.20496094 0.85464844 1.40992188 1.70929687 1.62109375 2.58984375 C1.89050781 3.69457031 2.15992188 4.79929687 2.4375 5.9375 C2.70433594 7.03964844 2.97117188 8.14179687 3.24609375 9.27734375 C3.72995725 11.89421254 3.72995725 11.89421254 5 13 C7.67058851 13.14115161 10.32432238 13.04247107 13 13 C13.12117188 12.14535156 13.24234375 11.29070313 13.3671875 10.41015625 C13.61855469 8.75306641 13.61855469 8.75306641 13.875 7.0625 C14.03742187 5.96035156 14.19984375 4.85820313 14.3671875 3.72265625 C14.57601562 2.82417969 14.78484375 1.92570312 15 1 C15.66 0.67 16.32 0.34 17 0 C16.91245449 1.75091019 16.80426627 3.50079551 16.6875 5.25 C16.62949219 6.22453125 16.57148437 7.1990625 16.51171875 8.203125 C15.9490829 11.27829497 15.15665346 12.76347048 13 15 C12.34 15 11.68 15 11 15 C10.67 16.65 10.34 18.3 10 20 C9.01 20 8.02 20 7 20 C7 18.35 7 16.7 7 15 C6.401875 14.938125 5.80375 14.87625 5.1875 14.8125 C3 14 3 14 1.25 12 C-0.4428059 7.93726584 -0.25533894 4.34076193 0 0 Z " fill="#707EFE" transform="translate(40,37)"/>
<path d="M0 0 C0 0.66 0 1.32 0 2 C-1.98 2.33 -3.96 2.66 -6 3 C-6.33 7.62 -6.66 12.24 -7 17 C-5.68 17.66 -4.36 18.32 -3 19 C-3.99 19.33 -4.98 19.66 -6 20 C-7.22969878 23.51190809 -7.22969878 23.51190809 -8 27 C-9.26636702 22.49792822 -9.25989825 18.14999465 -9.3125 13.5 C-9.34150391 12.64535156 -9.37050781 11.79070313 -9.40039062 10.91015625 C-9.46389852 4.64730027 -9.46389852 4.64730027 -7.15234375 1.421875 C-4.56279421 -0.2888256 -3.04540731 -0.33837859 0 0 Z " fill="#D9DBEC" transform="translate(47,17)"/>
<path d="M0 0 C1.65 0.33 3.3 0.66 5 1 C5.625 2.875 5.625 2.875 6 5 C4 7 4 7 1.375 7.125 C0.59125 7.08375 -0.1925 7.0425 -1 7 C-1.625 5.1875 -1.625 5.1875 -2 3 C-1.34 2.01 -0.68 1.02 0 0 Z " fill="#7C80A1" transform="translate(23,11)"/>
<path d="M0 0 C0.66 0.33 1.32 0.66 2 1 C1.34 4.63 0.68 8.26 0 12 C-2.26907773 7.46184454 -2.00210012 5.82830058 -1 1 C-0.67 0.67 -0.34 0.34 0 0 Z " fill="#999CB6" transform="translate(20,26)"/>
</svg>
